<svg xmlns="http://www.w3.org/2000/svg" viewBox="0 0 100 100"><rect width="100" height="100" fill="#1A1512"/><g transform="translate(50 50) scale(0.82) translate(-50 -50)">
    <defs><clipPath id="clip-fav"><circle cx="50" cy="50" r="48"/></clipPath></defs>
    <g clip-path="url(#clip-fav)">
      <circle cx="57" cy="43" r="3.5" fill="none" stroke="#E4610F" stroke-width="2.75" opacity="0.850"/><circle cx="57" cy="43" r="7" fill="none" stroke="#E4610F" stroke-width="1.76" opacity="0.822"/><circle cx="57" cy="43" r="9.5" fill="none" stroke="#E4610F" stroke-width="1.76" opacity="0.794"/><circle cx="57" cy="43" r="14" fill="none" stroke="#E4610F" stroke-width="2.75" opacity="0.766"/><circle cx="57" cy="43" r="19" fill="none" stroke="#E4610F" stroke-width="1.76" opacity="0.738"/><circle cx="57" cy="43" r="21" fill="none" stroke="#E4610F" stroke-width="1.76" opacity="0.710"/><circle cx="57" cy="43" r="27" fill="none" stroke="#E4610F" stroke-width="2.75" opacity="0.682"/><circle cx="57" cy="43" r="34" fill="none" stroke="#E4610F" stroke-width="1.76" opacity="0.654"/><circle cx="57" cy="43" r="39" fill="none" stroke="#E4610F" stroke-width="1.76" opacity="0.626"/><circle cx="57" cy="43" r="47" fill="none" stroke="#E4610F" stroke-width="2.75" opacity="0.598"/><circle cx="57" cy="43" r="55" fill="none" stroke="#E4610F" stroke-width="1.76" opacity="0.570"/><circle cx="57" cy="43" r="64" fill="none" stroke="#E4610F" stroke-width="1.76" opacity="0.542"/><circle cx="57" cy="43" r="74" fill="none" stroke="#E4610F" stroke-width="2.75" opacity="0.514"/><circle cx="57" cy="43" r="85" fill="none" stroke="#E4610F" stroke-width="1.76" opacity="0.486"/>
      <circle cx="57" cy="43" r="1.4" fill="#E4610F" opacity="0.9"/>
      <path d="M 57 43 L 27 97 L 32 98 Z" fill="#E4610F" opacity="0.55"/>
    </g>
    <circle cx="50" cy="50" r="48" fill="none" stroke="#E4610F" stroke-width="3.52"/></g></svg>